<svg width="0" height="0" class="hidden">
  <symbol xmlns="http://www.w3.org/2000/svg" xml:space="preserve" viewBox="0 0 297 297" id="closed-eye">
    <path xmlns="http://www.w3.org/2000/svg" d="M294.908 124.97c-.566-.755-14.168-18.72-38.881-36.692-32.842-23.887-70.023-36.512-107.525-36.512-37.501 0-74.683 12.625-107.526 36.511C16.262 106.25 2.658 124.215 2.092 124.97a10.458 10.458 0 0 0 0 12.55c.497.663 11.019 14.555 30.262 30.084L18.36 195.59c-2.583 5.165-.489 11.447 4.678 14.029a10.455 10.455 0 0 0 14.029-4.677l12.429-24.855c10.645 6.962 21.689 12.783 33.009 17.412l-12.379 24.758c-2.583 5.165-.489 11.447 4.678 14.03a10.457 10.457 0 0 0 14.03-4.678l13.631-27.262c11.7 3.266 23.604 5.3 35.578 6.048v24.381c0 5.775 4.683 10.458 10.458 10.458s10.458-4.683 10.458-10.458v-24.381c11.976-.748 23.878-2.782 35.578-6.048l13.631 27.262a10.457 10.457 0 0 0 14.03 4.678c5.167-2.583 7.261-8.865 4.678-14.03L214.497 197.5c11.321-4.63 22.364-10.451 33.01-17.414l12.428 24.856a10.454 10.454 0 0 0 14.03 4.677c5.166-2.582 7.26-8.864 4.677-14.029l-13.993-27.987c19.244-15.528 29.763-29.42 30.26-30.083a10.46 10.46 0 0 0-.001-12.55zm-51.741 32.731c-29.514 21.305-61.363 32.107-94.665 32.107-33.303 0-65.152-10.803-94.668-32.107-13.898-10.031-23.998-20.177-29.681-26.456 5.686-6.283 15.785-16.428 29.681-26.457 29.516-21.305 61.365-32.106 94.668-32.106 33.302 0 65.151 10.802 94.665 32.106 13.898 10.031 23.998 20.177 29.681 26.457-5.686 6.282-15.785 16.427-29.681 26.456z" data-original="#000000"></path>
  </symbol>
  <symbol xmlns="http://www.w3.org/2000/svg" xml:space="preserve" viewBox="0 0 510 510" id="opened-eye">
    <g>
      <path xmlns="http://www.w3.org/2000/svg" d="M506.597 245.486C460.244 189.012 362.107 123.107 255 123.107c-107.491 0-205.632 66.353-251.597 122.379a15 15 0 0 0 0 19.028c47.452 57.84 145.819 122.38 251.597 122.38 109.537 0 207.256-68.357 251.597-122.379a15 15 0 0 0 0-19.029zM356.893 255c0 56.184-45.709 101.894-101.894 101.894-56.186 0-101.894-45.713-101.894-101.894 0-56.184 45.709-101.894 101.894-101.894 56.19.001 101.894 45.716 101.894 101.894zm-321.631.004c16.883-17.547 57.591-55.416 114.736-79.721-35.862 47.122-35.876 112.273-.017 159.412-43.449-18.415-83.811-47.509-114.719-79.691zm324.74 79.713c35.862-47.123 35.875-112.273.017-159.412 43.447 18.415 83.81 47.51 114.719 79.69-16.883 17.549-57.591 55.416-114.736 79.722z" data-original="#000000"></path>
      <path xmlns="http://www.w3.org/2000/svg" d="M204 255c0 28.122 22.878 51 51 51 28.121 0 51-22.878 51-51s-22.879-51-51-51c-28.122 0-51 22.878-51 51zm72 0c0 11.58-9.421 21-21 21-11.58 0-21-9.42-21-21s9.42-21 21-21c11.579 0 21 9.42 21 21zM255 65c8.284 0 15-6.716 15-15V15c0-8.284-6.716-15-15-15s-15 6.716-15 15v35c0 8.284 6.716 15 15 15zM344.5 85.062c7.192 4.102 16.355 1.601 20.461-5.599l19.962-35c4.104-7.196 1.599-16.356-5.598-20.461-7.198-4.104-16.356-1.599-20.461 5.599l-19.962 35c-4.104 7.195-1.598 16.356 5.598 20.461zM145.039 79.463c4.104 7.196 13.264 9.702 20.461 5.598 7.196-4.104 9.702-13.265 5.598-20.461l-19.962-35c-4.104-7.196-13.266-9.702-20.461-5.598-7.196 4.104-9.702 13.265-5.598 20.461zM255 445c-8.284 0-15 6.716-15 15v35c0 8.284 6.716 15 15 15s15-6.716 15-15v-35c0-8.284-6.716-15-15-15zM165.5 424.939c-7.196-4.103-16.356-1.598-20.461 5.598l-19.962 35c-4.104 7.196-1.598 16.357 5.598 20.461 7.197 4.104 16.357 1.597 20.461-5.598l19.962-35c4.105-7.196 1.598-16.357-5.598-20.461zM364.961 430.537c-4.104-7.197-13.267-9.701-20.461-5.599-7.196 4.104-9.702 13.265-5.598 20.461l19.962 35c4.103 7.196 13.263 9.703 20.461 5.599 7.196-4.104 9.702-13.265 5.598-20.461z" data-original="#000000"></path>
    </g>
  </symbol>
</svg>