<svg xmlns="http://www.w3.org/2000/svg" width="512" height="512" viewBox="0 0 511.999 511.999" style="enable-background:new 0 0 512 512" xml:space="preserve">
    <path xmlns="http://www.w3.org/2000/svg" d="M503.899 260.566c0 137.98-111.649 251.433-251.433 251.433-139.421 0-251.433-113.11-251.433-251.433 0-138.863 112.57-251.433 251.433-251.433 139.122 0 251.433 112.808 251.433 251.433z" fill="#fff573" data-original="#fff573"/>
    <path xmlns="http://www.w3.org/2000/svg" d="M421.223 446.966a251.016 251.016 0 0 1-46.305 33.298c-33.629 1.759-72.619 2.773-114.174 2.773-49.388 0-95.145-1.428-132.603-3.86a251.92 251.92 0 0 1-42.807-30.753c42.135-4.553 105.079-7.44 175.41-7.44 62.437.001 119.058 2.277 160.479 5.982z" fill="#fadf6c" data-original="#fadf6c"/>
    <path xmlns="http://www.w3.org/2000/svg" transform="rotate(134.999 280.301 230.652)" fill="#c8beb9" data-original="#c8beb9" d="M105.734 210.541h349.131v40.222H105.734z"/>
    <path xmlns="http://www.w3.org/2000/svg" fill="#aaa" data-original="#aaaaaa" d="M417.974 121.434 171.099 368.309l-10.419-10.417 246.866-246.876z"/>
    <path xmlns="http://www.w3.org/2000/svg" d="M363.013 189.925 239.581 313.357c-4.809 4.81-12.608 4.81-17.419 0L197.606 288.8c-4.809-4.81-4.809-12.608 0-17.419L321.038 147.95c4.81-4.81 12.608-4.81 17.419 0l24.557 24.557c4.81 4.809 4.81 12.608-.001 17.418z" fill="#b4aaaa" data-original="#b4aaaa"/>
    <path xmlns="http://www.w3.org/2000/svg" d="m501.642 114.055-37.671 37.671c-10.541 10.541-27.631 10.541-38.172 0l-66.563-66.563c-10.541-10.541-10.541-27.631 0-38.172L396.907 9.32c10.541-10.541 27.631-10.541 38.172 0l66.563 66.563c10.541 10.542 10.541 27.632 0 38.172z" fill="#8c8787" data-original="#8c8787"/>
    <g xmlns="http://www.w3.org/2000/svg" fill="#736e6e">
        <path d="m501.645 114.054-37.678 37.668c-10.536 10.545-27.629 10.545-38.165 0l-19.077-19.077c34.805-12.944 63.84-37.739 82.209-69.477l12.711 12.711c10.536 10.546 10.536 27.64 0 38.175zM201.384 414.315l-37.671 37.671c-10.541 10.541-27.631 10.541-38.172 0l-66.563-66.564c-10.541-10.541-10.541-27.631 0-38.172l37.671-37.671c10.541-10.541 27.631-10.541 38.172 0l66.563 66.563c10.541 10.542 10.541 27.632 0 38.173z" data-original="#736e6e"/>
    </g>
    <g xmlns="http://www.w3.org/2000/svg" fill="#5a5555">
        <path d="m201.382 414.318-37.668 37.668c-10.545 10.545-27.629 10.545-38.175 0l-40.603-40.603c13.824 4.149 28.479 6.376 43.66 6.376 29.653 0 57.313-8.501 80.68-23.217a26.875 26.875 0 0 1-7.894 19.776z" data-original="#5a5555"/>
        <path d="m248.945 407.886-47.565 47.565c-7.808 7.808-20.469 7.808-28.278 0l-117.59-117.59c-7.808-7.808-7.808-20.469 0-28.278l47.565-47.565c7.808-7.808 20.469-7.808 28.278 0l117.59 117.59c7.809 7.809 7.809 20.469 0 28.278zM505.108 151.723l-47.565 47.565c-7.808 7.808-20.469 7.808-28.278 0l-117.59-117.59c-7.808-7.808-7.808-20.469 0-28.278l47.564-47.565c7.808-7.808 20.469-7.808 28.278 0l117.59 117.59c7.809 7.81 7.809 20.47.001 28.278z" data-original="#5a5555"/>
    </g>
    <path xmlns="http://www.w3.org/2000/svg" d="M363.012 189.921 239.584 313.358c-4.809 4.81-12.613 4.81-17.422 0l-8.835-8.835c-1.949-1.949-1.351-5.228 1.15-6.386 25.591-11.86 52.954-31.375 78.006-57.08 23.585-24.206 41.618-50.314 52.991-74.886 1.721-3.717 6.599-4.598 9.495-1.702l8.041 8.041c4.811 4.809 4.811 12.602.002 17.411z" fill="#9b9b9b" data-original="#9b9b9b"/>
    <path xmlns="http://www.w3.org/2000/svg" d="m505.107 151.722-47.566 47.566c-7.803 7.813-20.463 7.813-28.277 0l-36.626-36.626c36.535-9.908 67.837-32.527 88.878-62.807l23.591 23.591c7.813 7.813 7.813 20.473 0 28.276z" fill="#464141" data-original="#464141"/>
    <path xmlns="http://www.w3.org/2000/svg" d="m248.948 407.881-47.566 47.566c-7.813 7.813-20.473 7.813-28.277 0l-57.251-57.252a152.776 152.776 0 0 0 21.759 1.548c36.738 0 70.428-13.066 96.681-34.794l14.654 14.654c7.803 7.815 7.803 20.475 0 28.278z" fill="#464646" data-original="#464646"/>
</svg>