<svg width="0" height="0" class="hidden">
  <symbol xmlns="http://www.w3.org/2000/svg" xml:space="preserve" viewBox="0 0 451.847 451.847" id="navbar-chevron-down">
    <path d="M225.923 354.706c-8.098 0-16.195-3.092-22.369-9.263L9.27 151.157c-12.359-12.359-12.359-32.397 0-44.751 12.354-12.354 32.388-12.354 44.748 0l171.905 171.915 171.906-171.909c12.359-12.354 32.391-12.354 44.744 0 12.365 12.354 12.365 32.392 0 44.751L248.292 345.449c-6.177 6.172-14.274 9.257-22.369 9.257z" data-original="#000000" xmlns="http://www.w3.org/2000/svg"></path>
  </symbol>
  <symbol xmlns="http://www.w3.org/2000/svg" xml:space="preserve" viewBox="0 0 512.005 512" id="navbar-logout">
    <g>
      <path xmlns="http://www.w3.org/2000/svg" d="M320 277.336c-11.797 0-21.332 9.559-21.332 21.332v85.336c0 11.754-9.559 21.332-21.336 21.332h-64v-320c0-18.219-11.605-34.496-29.055-40.555l-6.316-2.113h99.371c11.777 0 21.336 9.578 21.336 21.336v64c0 11.773 9.535 21.332 21.332 21.332s21.332-9.559 21.332-21.332v-64c0-35.285-28.715-64-64-64H48c-.812 0-1.492.363-2.281.469-1.028-.086-2.008-.47-3.051-.47C19.137.004 0 19.138 0 42.669v384c0 18.219 11.605 34.496 29.055 40.555L157.44 510.02c4.352 1.343 8.68 1.984 13.227 1.984 23.531 0 42.664-19.137 42.664-42.668v-21.332h64c35.285 0 64-28.715 64-64v-85.336c0-11.773-9.535-21.332-21.332-21.332zm0 0" data-original="#000000"></path>
      <path xmlns="http://www.w3.org/2000/svg" d="m505.75 198.254-85.336-85.332a21.33 21.33 0 0 0-23.25-4.633C389.207 111.598 384 119.383 384 128.004v64h-85.332c-11.777 0-21.336 9.555-21.336 21.332 0 11.777 9.559 21.332 21.336 21.332H384v64c0 8.621 5.207 16.406 13.164 19.715a21.335 21.335 0 0 0 23.25-4.63l85.336-85.335c8.34-8.34 8.34-21.824 0-30.164zm0 0" data-original="#000000"></path>
    </g>
  </symbol>
  <symbol xmlns="http://www.w3.org/2000/svg" xml:space="preserve" viewBox="0 0 24 24" id="navbar-setting">
    <path xmlns="http://www.w3.org/2000/svg" d="m22.683 9.394-1.88-.239a9.45 9.45 0 0 0-.569-1.374l1.161-1.495a1.486 1.486 0 0 0-.122-1.979l-1.575-1.575a1.49 1.49 0 0 0-1.985-.127L16.22 3.766a9.416 9.416 0 0 0-1.375-.569l-.239-1.877A1.498 1.498 0 0 0 13.12 0h-2.24c-.757 0-1.396.567-1.486 1.317l-.239 1.88a9.307 9.307 0 0 0-1.375.569L6.286 2.605a1.488 1.488 0 0 0-1.979.122L2.732 4.301a1.49 1.49 0 0 0-.127 1.986l1.161 1.494a9.34 9.34 0 0 0-.569 1.374l-1.877.239C.567 9.484 0 10.123 0 10.88v2.24c0 .757.567 1.396 1.317 1.486l1.88.239c.155.477.346.937.569 1.374l-1.161 1.495a1.486 1.486 0 0 0 .122 1.979l1.575 1.575a1.492 1.492 0 0 0 1.985.126l1.494-1.161c.437.224.897.415 1.374.569l.239 1.876c.09.755.729 1.322 1.486 1.322h2.24c.757 0 1.396-.567 1.486-1.317l.239-1.88a9.45 9.45 0 0 0 1.374-.569l1.495 1.161c.605.47 1.459.415 1.979-.122l1.575-1.575a1.49 1.49 0 0 0 .127-1.985l-1.161-1.494c.224-.437.415-.897.569-1.374l1.876-.239a1.498 1.498 0 0 0 1.32-1.486v-2.24a1.496 1.496 0 0 0-1.316-1.486zM12 17c-2.757 0-5-2.243-5-5s2.243-5 5-5 5 2.243 5 5-2.243 5-5 5z" data-original="#000000"></path>
  </symbol>
  <symbol xmlns="http://www.w3.org/2000/svg" xml:space="preserve" viewBox="0 0 460.054 460.054" id="sidebar-category">
    <g xmlns="http://www.w3.org/2000/svg">
      <path d="M40.003 69.679C17.914 69.679 0 87.592 0 109.697c0 22.089 17.914 39.987 40.003 39.987s40.003-17.898 40.003-39.987c0-22.105-17.914-40.018-40.003-40.018zM40.003 190.032C17.914 190.032 0 207.93 0 230.035c0 22.089 17.914 40.002 40.003 40.002s40.003-17.913 40.003-40.002c0-22.105-17.914-40.003-40.003-40.003zM40.003 310.37C17.914 310.37 0 328.283 0 350.372c0 22.089 17.914 40.003 40.003 40.003s40.003-17.914 40.003-40.003-17.914-40.002-40.003-40.002zM429.973 79.601H145.419c-16.611 0-30.081 13.47-30.081 30.096 0 16.612 13.469 30.081 30.081 30.081h284.554c16.61 0 30.081-13.469 30.081-30.081 0-16.626-13.471-30.096-30.081-30.096zM429.973 199.939H145.419c-16.611 0-30.081 13.469-30.081 30.096 0 16.612 13.469 30.081 30.081 30.081h284.554c16.61 0 30.081-13.469 30.081-30.081 0-16.627-13.471-30.096-30.081-30.096zM429.973 320.291H145.419c-16.611 0-30.081 13.469-30.081 30.081 0 16.611 13.469 30.08 30.081 30.08h284.554c16.61 0 30.081-13.469 30.081-30.08 0-16.613-13.471-30.081-30.081-30.081z" data-original="#000000"></path>
    </g>
  </symbol>
  <symbol xmlns="http://www.w3.org/2000/svg" xml:space="preserve" viewBox="0 0 512 512" id="sidebar-dashboard">
    <g>
      <path xmlns="http://www.w3.org/2000/svg" d="M197.332 0h-160C16.746 0 0 16.746 0 37.332v96c0 20.59 16.746 37.336 37.332 37.336h160c20.59 0 37.336-16.746 37.336-37.336v-96C234.668 16.746 217.922 0 197.332 0zM197.332 213.332h-160C16.746 213.332 0 230.078 0 250.668v224C0 495.254 16.746 512 37.332 512h160c20.59 0 37.336-16.746 37.336-37.332v-224c0-20.59-16.746-37.336-37.336-37.336zM474.668 341.332h-160c-20.59 0-37.336 16.746-37.336 37.336v96c0 20.586 16.746 37.332 37.336 37.332h160C495.254 512 512 495.254 512 474.668v-96c0-20.59-16.746-37.336-37.332-37.336zM474.668 0h-160c-20.59 0-37.336 16.746-37.336 37.332v224c0 20.59 16.746 37.336 37.336 37.336h160c20.586 0 37.332-16.746 37.332-37.336v-224C512 16.746 495.254 0 474.668 0zm0 0" data-original="#000000"></path>
    </g>
  </symbol>
  <symbol xmlns="http://www.w3.org/2000/svg" xml:space="preserve" viewBox="0 0 24 24" id="sidebar-post">
    <g>
      <path xmlns="http://www.w3.org/2000/svg" d="M8.75 17.612v4.638a.751.751 0 0 0 1.354.444l2.713-3.692zM23.685.139a.75.75 0 0 0-.782-.054l-22.5 11.75a.752.752 0 0 0 .104 1.375l6.255 2.138 13.321-11.39L9.775 16.377l10.483 3.583a.753.753 0 0 0 .984-.599l2.75-18.5a.751.751 0 0 0-.307-.722z" data-original="#000000"></path>
    </g>
  </symbol>
  <symbol xmlns="http://www.w3.org/2000/svg" xml:space="preserve" viewBox="0 0 512 512" id="sidebar-setting">
    <path xmlns="http://www.w3.org/2000/svg" d="M0 58c0-11.047 8.953-20 20-20h56V20C76 8.953 84.953 0 96 0s20 8.953 20 20v18h376c11.047 0 20 8.953 20 20s-8.953 20-20 20H116v18c0 11.047-8.953 20-20 20s-20-8.953-20-20V78H20C8.953 78 0 69.047 0 58zm492 376h-56v-18c0-11.047-8.953-20-20-20s-20 8.953-20 20v18H20c-11.047 0-20 8.953-20 20s8.953 20 20 20h376v18c0 11.047 8.953 20 20 20s20-8.953 20-20v-18h56c11.047 0 20-8.953 20-20s-8.953-20-20-20zm0-198H276v-18c0-11.047-8.953-20-20-20s-20 8.953-20 20v18H20c-11.047 0-20 8.953-20 20s8.953 20 20 20h216v18c0 11.047 8.953 20 20 20s20-8.953 20-20v-18h216c11.047 0 20-8.953 20-20s-8.953-20-20-20zm0 0" data-original="#000000"></path>
  </symbol>
  <symbol xmlns="http://www.w3.org/2000/svg" xml:space="preserve" viewBox="0 0 512 512" id="sidebar-user">
    <path d="M256 0c-74.439 0-135 60.561-135 135s60.561 135 135 135 135-60.561 135-135S330.439 0 256 0zM423.966 358.195C387.006 320.667 338.009 300 286 300h-60c-52.008 0-101.006 20.667-137.966 58.195C51.255 395.539 31 444.833 31 497c0 8.284 6.716 15 15 15h420c8.284 0 15-6.716 15-15 0-52.167-20.255-101.461-57.034-138.805z" data-original="#000000" xmlns="http://www.w3.org/2000/svg"></path>
  </symbol>
</svg>